Simulation
nRows=28
nColumns=15
endheader
time  TH_x TH_y TH_z SC_y  SC_z  SC_x  AC_y  AC_z  AC_x  GH_y  GH_z  GH_yy  EL_x  PS_y
0.75  0.000000  0.000000  0.000000  -32.08475860871057  4.541874221861249  23.63874797164856  58.5105016023471  -6.5586913552485715  -6.589137905316366  21.933151341177943  32.039652184581236  -17.595071402878677  19.510116453017606  0.000000
0.765  0.000000  0.000000  0.000000  -31.631546946822503  4.192147754547363  23.59603685003501  56.802730296001286  -5.010143644382125  -7.081671346562119  22.240655003104997  32.0532575632998  -17.358890142747644  19.827527145700536  0.000000
0.78  0.000000  0.000000  0.000000  -31.302651820855132  3.371768529126174  23.559723219860846  55.73523893307534  -3.5972298635417124  -7.539937698266467  22.205406855302304  32.49650499474404  -17.702704088847184  19.667735398008997  0.000000
0.7949999999999999  0.000000  0.000000  0.000000  -31.132001880345378  2.540201563131054  23.39339046964488  55.6286048707188  -2.2458251850245574  -8.141234509656663  22.022081586205434  33.23365319248388  -18.391376529393163  19.337014434945214  0.000000
0.8099999999999999  0.000000  0.000000  0.000000  -31.078215997013228  2.1063754402228403  23.298542695025063  55.72343989783418  -0.9447528544030022  -8.740330723555601  22.027972327601592  33.81067950123695  -18.768436881658282  19.14287937463827  0.000000
0.825  0.000000  0.000000  0.000000  -31.09418567967048  1.978687446451103  23.377198589462836  55.52612215411924  0.10421965741184817  -9.059310679179397  22.100447126944267  34.24671579466351  -18.981347611508546  19.01937471804152  0.000000
0.84  0.000000  0.000000  0.000000  -31.14038755961253  1.9251356816106853  23.47889417303997  55.4365648825323  0.9694727885331522  -9.289573212251353  22.09827445050124  34.78404704990774  -19.347607704116232  18.798702166499268  0.000000
0.855  0.000000  0.000000  0.000000  -31.236134424711015  1.9531233565698147  23.641237887994365  55.34569587489036  1.7379594562002354  -9.4409783813642  22.12374378563669  35.30145414394438  -19.66410033396776  18.580035676241803  0.000000
0.87  0.000000  0.000000  0.000000  -31.353498782983237  2.0472297472942715  23.826698533226068  55.238668239389405  2.387206298233503  -9.5046410128339  22.13865020851137  35.83350890203806  -20.009560455936466  18.36516959789858  0.000000
0.885  0.000000  0.000000  0.000000  -31.49459666453873  2.1745098019905558  24.038297830144963  55.170830999713544  2.973833093755204  -9.529211909191803  22.16663973556619  36.35000469730797  -20.353621149354208  18.13664228070108  0.000000
0.8999999999999999  0.000000  0.000000  0.000000  -31.649338985234827  2.3291835863470145  24.26570639326055  55.07733654155903  3.48784594692446  -9.499868758013031  22.20837518270172  36.856894905102315  -20.687391686099847  17.92530966652191  0.000000
0.9149999999999999  0.000000  0.000000  0.000000  -31.81876765994471  2.4977850394883103  24.504111317613198  55.0229277810851  3.956363257451404  -9.448929211549636  22.256693892795973  37.3399981823029  -21.030894060444044  17.712539445733608  0.000000
0.9299999999999999  0.000000  0.000000  0.000000  -31.998807401961347  2.671651944242439  24.75294645328909  54.95314697382456  4.377425456517912  -9.3678027747172  22.323816616765072  37.80296408848376  -21.352725866890992  17.514026614746907  0.000000
0.945  0.000000  0.000000  0.000000  -32.18641708297964  2.8465915325185507  25.005102465263676  54.910535466273316  4.765428241888132  -9.274688863066402  22.39362865815392  38.2381367347248  -21.681378279037013  17.32150231563316  0.000000
0.96  0.000000  0.000000  0.000000  -32.38038744191456  3.0175513249821417  25.261789057862735  54.86216013414437  5.119974271105556  -9.167620604086025  22.479472817368006  38.650346468610266  -21.98907642447862  17.139215434343186  0.000000
0.975  0.000000  0.000000  0.000000  -32.57760204213956  3.1838441891501823  25.518503925876313  54.828807325798294  5.449232643718934  -9.053419682437374  22.56569186430071  39.03355521357044  -22.295970853199965  16.96692696409425  0.000000
0.99  0.000000  0.000000  0.000000  -32.77680092083849  3.3431030015429806  25.774855929823254  54.79464023013417  5.7536376817535695  -8.935222406157525  22.66207228108961  39.39440911519978  -22.585623532047194  16.802817096939936  0.000000
1.005  0.000000  0.000000  0.000000  -32.97606093638153  3.495692662905025  26.029468924378047  54.766867077030206  6.038277587747621  -8.812991253161655  22.756345016110295  39.72727924393874  -22.86743682847511  16.650163626363028  0.000000
1.02  0.000000  0.000000  0.000000  -33.17364282648095  3.6409602113385136  26.280196914980554  54.739332427287735  6.303793778549696  -8.692325247163367  22.854802055888456  40.03994550116121  -23.134598599533046  16.505444900560896  0.000000
1.035  0.000000  0.000000  0.000000  -33.36864976608245  3.779334227018992  26.52780785145095  54.7129633929177  6.553611620630703  -8.569998416760958  22.948305372021753  40.32725341698143  -23.38909993766994  16.372491873873418  0.000000
1.05  0.000000  0.000000  0.000000  -33.55900008709182  3.9110923719771753  26.769160933595206  54.6859767056836  6.788103554563131  -8.451953401265849  23.04065743230514  40.59730097195137  -23.63030519184363  16.24802851681775  0.000000
1.065  0.000000  0.000000  0.000000  -33.74453233352001  4.036559517770068  27.00608171989066  54.65730739537086  7.009858497294209  -8.334150500684363  23.12527999052538  40.84550669249917  -23.855626838134903  16.135270435558333  0.000000
1.08  0.000000  0.000000  0.000000  -33.92308288003843  4.156485396772981  27.23517847254707  54.62640718563475  7.218676449327976  -8.221748397944202  23.204602121821445  41.0796974122004  -24.06768294038805  16.031991724301754  0.000000
1.095  0.000000  0.000000  0.000000  -34.09493250737625  4.271030096406322  27.458522198842097  54.592520417489645  7.416723391811954  -8.110970289634684  23.27368328422225  41.295906772555334  -24.262053573828695  15.940414351992533  0.000000
1.1099999999999999  0.000000  0.000000  0.000000  -34.25796953324439  4.381042438220621  27.672964490021617  54.55493022906765  7.603288900304778  -8.005975180474051  23.334448121876974  41.50136800059097  -24.44250794376231  15.859296269242753  0.000000
1.125  0.000000  0.000000  0.000000  -34.41256534119043  4.486672717559529  27.88054096146563  54.51387213008811  7.780249168439189  -7.903684621833001  23.382926611376806  41.69250024341899  -24.60447740838503  15.78998663440491  0.000000
1.14  0.000000  0.000000  0.000000  -34.556829921751564  4.588639262250067  28.07838323401679  54.46820965158732  7.946622370722231  -7.807321300677286  23.42107161795347  41.87585137591472  -24.75182684287287  15.731864228619624  0.000000
1.155  0.000000  0.000000  0.000000  -34.69126752450573  4.68698752052853  28.2682814531244  54.419144445372474  8.104038674225585  -7.71432971670272  23.445612793626374  42.048116699380195  -24.88065491190038  15.68573452489116  0.000000
